<?xml version="1.0" encoding="utf-8"?>
<svg width="109px" height="109px" viewBox="0 0 109 109" version="1.1" xmlns:xlink="http://www.w3.org/1999/xlink" xmlns="http://www.w3.org/2000/svg">
  <path d="M0.796997 49.8457L10.9011 39.7468L10.9011 13.625C10.9011 7.60278 15.7787 2.72498 21.8008 2.72498C27.8229 2.72498 32.7006 7.60278 32.7006 13.625L32.7006 17.9469L47.922 2.72498C49.666 0.980957 52.0313 0 54.5 0C56.9688 0 59.334 0.980957 61.078 2.72498L108.203 49.8457C109.266 50.9139 109.266 52.6361 108.203 53.7043C107.135 54.7671 105.413 54.7671 104.344 53.7043L98.0989 47.4531L98.0989 95.375C98.0989 102.901 92.0005 109 84.4742 109L24.5258 109C16.9995 109 10.9011 102.901 10.9011 95.375L10.9011 47.4531L4.65552 53.7043C3.5874 54.7671 1.86523 54.7671 0.796997 53.7043C-0.265625 52.6361 -0.265625 50.9139 0.796997 49.8457ZM54.5 5.44995C53.4755 5.44995 52.4999 5.85327 51.775 6.57813L16.351 42.0032L16.351 95.375C16.351 99.8877 20.0133 103.55 24.5258 103.55L84.4742 103.55C88.9867 103.55 92.649 99.8877 92.649 95.375L92.649 42.0032L57.225 6.57813C56.5001 5.85327 55.5245 5.44995 54.5 5.44995ZM27.2507 13.625L27.2507 23.3969L16.351 34.2969L16.351 13.625C16.351 10.6166 18.7925 8.17505 21.8008 8.17505C24.8091 8.17505 27.2507 10.6166 27.2507 13.625ZM50.9739 38.9457C49.9113 37.8829 48.1891 37.8829 47.1208 38.9457C46.0581 40.0139 46.0581 41.7361 47.1208 42.8043L53.3992 49.0773C41.8727 49.6495 32.7006 59.1816 32.7006 70.8501C32.7006 82.8892 42.4613 92.6499 54.5 92.6499C66.5388 92.6499 76.2994 82.8892 76.2994 70.8501C76.2994 66.5828 75.0732 62.6042 72.9532 59.2415C72.0922 57.8735 70.1956 57.7974 69.0511 58.9417C68.0593 59.9336 67.9939 61.5088 68.6914 62.7241C70.0648 65.1167 70.8496 67.8906 70.8496 70.8501C70.8496 79.8806 63.5304 87.2 54.5 87.2C45.4696 87.2 38.1504 79.8806 38.1504 70.8501C38.1504 61.8193 45.4696 54.5 54.5 54.5L54.6908 54.5L47.1208 62.0701C46.0581 63.1328 46.0581 64.8604 47.1208 65.9231C48.1891 66.9858 49.9113 66.9858 50.9739 65.9231L62.5386 54.3638C63.6013 53.301 63.6013 51.5734 62.5386 50.5106L50.9739 38.9457L50.9739 38.9457Z" id="Fill-91" fill="#FFFFFF" fill-rule="evenodd" stroke="none" />
</svg>