<?xml version="1.0" encoding="utf-8"?>
<svg width="486px" height="119px" viewBox="0 0 486 119" version="1.1" xmlns:xlink="http://www.w3.org/1999/xlink" xmlns="http://www.w3.org/2000/svg">
  <defs>
    <filter id="filter_1">
      <feColorMatrix in="SourceGraphic" type="matrix" values="0 0 0 0 1 0 0 0 0 1 0 0 0 0 1 0 0 0 1 0" />
    </filter>
    <path d="M0 0L160.69 0L160.69 86.2049L0 86.2049L0 0Z" id="path_1" />
    <clipPath id="mask_1">
      <use xlink:href="#path_1" />
    </clipPath>
  </defs>
  <g id="Group-11" filter="url(#filter_1)">
    <path d="M229.143 17.9035L247.755 78.8661L266.366 17.9035L285.761 17.9035L258.341 100.827L236.051 100.827L208.856 17.9035L229.143 17.9035Z" id="Fill-1" fill="#5528FF" fill-rule="evenodd" stroke="none" />
    <path d="M340.691 35.0615L314.833 35.0615L314.833 17.9036L385.828 17.9036L385.828 35.0615L359.861 35.0615L359.861 100.827L340.691 100.827L340.691 35.0615Z" id="Fill-2" fill="#5528FF" fill-rule="evenodd" stroke="none" />
    <g id="Group-10" transform="matrix(1 0 0 1 0 7.0962E-15)">
      <path d="M448.885 32.2013C441.528 32.2013 436.068 35.0616 436.068 40.2062C436.068 44.3266 439.857 47.2989 445.432 48.5564L456.464 50.8446C469.504 53.5889 486 57.7067 486 75.0926C486 92.4771 468.947 102.314 452.118 102.314C431.387 102.314 417.791 91.677 414.892 73.8338L433.84 73.8338C435.956 82.5267 442.644 86.5298 452.564 86.5298C459.027 86.5298 466.384 84.3563 466.384 77.4942C466.384 72.1189 460.143 69.4867 451.336 67.5438L441.528 65.4836C428.378 62.6272 416.454 56.2212 416.454 41.3516C416.454 24.4231 434.174 16.5303 450.002 16.5303C465.826 16.5303 480.871 23.6243 483.659 41.9237L464.823 41.9237C462.927 35.7457 457.022 32.2013 448.885 32.2013" id="Fill-3" fill="#5528FF" fill-rule="evenodd" stroke="none" />
      <path d="M80.4104 26.7866L107.011 44.9278L126.692 31.5621L80.4104 0L80.3449 0.0434976L34.0506 31.6149L53.7304 44.9805L80.3449 26.8301L80.4104 26.7866Z" id="Fill-5" fill="#5528FF" fill-rule="evenodd" stroke="none" />
      <g id="Group-9" transform="translate(0 32.795097)">
        <path d="M0 0L160.69 0L160.69 86.2049L0 86.2049L0 0Z" id="Clip-8" fill="none" fill-rule="evenodd" stroke="none" />
        <g clip-path="url(#mask_1)">
          <path d="M80.3314 51.7187L0 0.0171354L0 34.5028L80.3314 86.2057L80.3455 86.1952L160.69 34.4883L160.69 0L80.3455 51.7094L80.3314 51.7187Z" id="Fill-7" fill="#5528FF" fill-rule="evenodd" stroke="none" />
        </g>
      </g>
    </g>
  </g>
</svg>